PathFileType	4	(X/Y/Z)	C:/Users/opensim2020/Desktop/walking_exp_matlab/subject02_walking06_straight_02.trc	
DataRate	CameraRate	NumFrames	NumMarkers	Units	OrigDataRate	OrigDataStartFrame	OrigNumFrames	
100.00	100.00	4	41	mm	100.00	1569	183	
Frame#	Time	LFHD			RFHD			LBHD			RBHD			C7			T10			CLAV			STRN			RBAK			LSHO			LUPA			LELB			LFRM			LWRA			LWRB			LFIN			RSHO			RUPA			RELB			RFRM			RWRA			RWRB			RFIN			LASI			RASI			LPSI			RPSI			LTHI			LKNE			LTIB			LANK			LHEE			LTOE			RTHI			RKNE			RTIB			RANK			RHEE			RTOE			*39			*40			
		X1	Y1	Z1	X2	Y2	Z2	X3	Y3	Z3	X4	Y4	Z4	X5	Y5	Z5	X6	Y6	Z6	X7	Y7	Z7	X8	Y8	Z8	X9	Y9	Z9	X10	Y10	Z10	X11	Y11	Z11	X12	Y12	Z12	X13	Y13	Z13	X14	Y14	Z14	X15	Y15	Z15	X16	Y16	Z16	X17	Y17	Z17	X18	Y18	Z18	X19	Y19	Z19	X20	Y20	Z20	X21	Y21	Z21	X22	Y22	Z22	X23	Y23	Z23	X24	Y24	Z24	X25	Y25	Z25	X26	Y26	Z26	X27	Y27	Z27	X28	Y28	Z28	X29	Y29	Z29	X30	Y30	Z30	X31	Y31	Z31	X32	Y32	Z32	X33	Y33	Z33	X34	Y34	Z34	X35	Y35	Z35	X36	Y36	Z36	X37	Y37	Z37	X38	Y38	Z38	X39	Y39	Z39	X40	Y40	Z40	X41	Y41	Z41	

138	1.370	-969.96326	-623.28479	1721.56665	-1113.04297	-629.16968	1708.81030	-970.81866	-493.31064	1646.19373	-1113.30042	-486.73975	1631.75354	-1055.19385	-446.02170	1507.46912	-1074.24463	-395.55722	1231.86829	-1034.31580	-586.66217	1439.96191	-1056.46082	-640.03973	1269.57520	-1135.52844	-396.22067	1338.33374	-871.52850	-498.19131	1469.81006	-805.30487	-430.53607	1279.58374	-803.37207	-390.10297	1145.10059	-789.86633	-356.17130	1018.00702	-809.47711	-375.86142	878.95148	-787.36847	-326.77341	898.10248	-783.32721	-320.55713	831.48615	-1232.97314	-542.95618	1489.75586	-1341.74731	-564.14771	1312.54480	-1381.33130	-628.08459	1183.04663	-1396.89465	-706.89929	1090.15173	-1371.78052	-799.23401	995.04395	-1413.26917	-766.78241	975.44751	-1411.72791	-828.91943	940.26306	-949.87036	-640.50208	974.10492	-1207.64160	-621.48895	956.27777	-1017.08081	-422.53732	1011.99304	-1130.66113	-412.05933	1013.73279	-881.82086	-650.56415	673.16998	-918.78522	-688.01526	477.00128	-921.71381	-703.25470	283.55612	-947.12769	-794.95184	77.47848	-1004.70325	-778.16064	41.53061	-921.65375	-948.03339	87.12370	-1250.26086	-484.11072	658.49902	-1203.59033	-434.73694	453.80350	-1200.71912	-339.86810	289.35660	-1156.83899	-269.58102	109.21703	-1097.96729	-226.09091	62.57468	-1178.79578	-408.35092	35.10313	-1060.84399	-524.41077	1790.01624	-3360.17798	2845.05859	1033.93042 
139	1.380	-968.09851	-632.55988	1720.30444	-1111.19910	-638.87012	1707.44214	-969.17352	-503.04202	1644.85095	-1111.57007	-496.27768	1630.66895	-1053.86096	-455.72250	1506.19983	-1072.78687	-405.84140	1230.30579	-1032.45520	-596.20667	1438.98840	-1054.55139	-650.43274	1268.96960	-1134.73059	-406.10303	1336.99121	-869.84052	-507.26053	1468.49854	-803.86053	-441.02521	1277.96216	-802.02399	-400.67181	1143.20825	-788.57819	-366.59775	1016.40601	-807.86139	-385.16568	877.19226	-785.77460	-336.69113	896.64349	-781.86298	-330.23413	829.74951	-1231.30359	-552.94385	1488.57092	-1339.38354	-574.51666	1311.00317	-1378.98352	-639.04865	1181.73438	-1394.15271	-718.04224	1089.04126	-1368.94690	-810.51349	994.19165	-1410.09314	-777.88312	974.17969	-1408.77356	-840.50189	939.66986	-948.01587	-652.02911	973.47498	-1206.13330	-632.64618	955.19385	-1015.66632	-433.92755	1010.44299	-1129.02063	-423.27078	1012.42700	-881.20642	-664.70239	672.74878	-917.98041	-700.66571	476.23285	-921.16150	-712.72034	282.27328	-948.10431	-800.53723	74.94135	-1005.25830	-783.13983	39.78086	-923.69568	-953.77179	82.47733	-1249.51282	-493.53952	658.08954	-1203.96631	-443.36664	453.48318	-1200.89087	-345.37119	290.73535	-1157.52136	-271.29184	112.08518	-1098.50256	-226.99127	66.48328	-1179.10583	-408.47751	34.95476	-1058.66980	-533.91254	1788.71069	-3360.33643	2845.10083	1033.91956 
140	1.390	-966.22552	-642.49200	1719.17395	-1109.14441	-648.33118	1706.37109	-967.37061	-511.84473	1643.76611	-1109.90430	-505.65128	1629.54761	-1052.18970	-465.02307	1504.87097	-1071.16968	-416.24899	1228.67676	-1030.50806	-605.85803	1438.10999	-1052.52258	-660.78052	1268.34546	-1133.31946	-416.33313	1335.48279	-868.11981	-516.29218	1467.28418	-802.38733	-450.27396	1276.08398	-800.24011	-411.11578	1141.66125	-787.00146	-377.53549	1014.91382	-806.37921	-396.27966	875.42114	-783.95337	-347.53928	894.96356	-780.26489	-341.41904	828.20337	-1229.49084	-562.93518	1487.48914	-1337.10059	-584.91718	1309.62524	-1376.02954	-649.72162	1180.24219	-1391.23181	-728.75842	1087.84387	-1365.63892	-821.56940	993.17096	-1406.79626	-789.06879	973.08289	-1405.56909	-851.58063	938.80695	-945.90436	-663.78864	972.91919	-1204.44348	-644.12573	954.30664	-1013.76459	-445.09760	1008.95398	-1127.13269	-434.70090	1011.19690	-880.65039	-678.56848	672.11163	-917.18665	-713.03149	475.27109	-920.82672	-721.27686	280.83743	-948.97614	-804.81982	72.00909	-1006.68030	-786.41284	36.76883	-925.44263	-958.12115	77.13619	-1248.73132	-503.42004	657.62500	-1204.36206	-452.50223	453.13867	-1201.05481	-351.26651	292.26471	-1158.28748	-273.24908	115.32491	-1099.31555	-228.09488	70.88666	-1179.44653	-408.76343	35.00712	-1057.31201	-543.90247	1787.77539	-3356.96680	2845.87207	1033.95715 
141	1.400	-964.18329	-651.71606	1718.06750	-1107.11548	-657.84729	1705.18115	-965.40961	-521.01929	1642.78003	-1108.05566	-515.06329	1628.51709	-1050.37170	-474.43842	1503.31934	-1069.42090	-426.79016	1226.99512	-1028.47351	-615.50427	1437.33191	-1050.42432	-671.31543	1267.83008	-1131.41809	-426.72348	1333.77319	-866.41028	-525.28644	1466.14453	-800.73059	-460.87463	1274.83484	-798.59900	-421.71732	1139.86829	-785.28595	-388.18088	1013.16425	-804.66809	-407.75104	873.69269	-781.97040	-359.04962	893.22821	-778.30444	-351.95813	826.36548	-1227.62097	-572.91382	1486.36414	-1335.24561	-595.11255	1308.54211	-1373.33679	-660.10504	1178.99756	-1388.26367	-739.32013	1086.63208	-1362.40149	-832.28485	992.16656	-1403.45947	-799.58148	971.80798	-1402.08752	-862.24701	937.63519	-943.73047	-675.76563	972.48505	-1202.57849	-655.89575	953.58740	-1011.74719	-456.90271	1007.39484	-1124.96741	-446.30225	1009.93060	-879.68329	-692.25940	671.25214	-916.41296	-724.98883	474.06409	-920.46588	-729.10400	279.20920	-949.65979	-807.80579	68.88701	-1006.70227	-787.74597	34.01011	-926.85260	-961.39526	71.31481	-1247.89575	-513.80164	657.20300	-1204.87012	-462.12900	452.94214	-1201.33350	-357.45544	294.04425	-1159.19177	-275.49802	118.88811	-1099.91345	-229.66365	75.66846	-1179.79272	-408.92886	34.90350	-1055.18188	-553.16931	1786.53906	-3360.24927	2845.15527	1033.84204 
